<svg id="Шар_1" data-name="Шар 1" xmlns="http://www.w3.org/2000/svg" width="620" height="633" viewBox="0 0 620 633"><defs><style>.cls-1{fill:none;}.cls-2{fill:#269e96;}.cls-3{fill:#f2f2f2;}.cls-4{fill:#e6e6e6;}.cls-5{fill:#ccc;}.cls-6{fill:#ffb6b6;}.cls-7{fill:#2f2e41;}.cls-8{fill:#3f3d56;}</style></defs><rect class="cls-1" width="620" height="633"/><path class="cls-2" d="M239.23,236.48c4.55-5,12.06-3.54,17.06,0,6.43,4.54,8.27,12.82,9.22,20.17,1.6,12.44,2.08,30,16.22,35.22,6.53,2.4,14,.42,19.52-3.48,6-4.26,9.79-10.82,12.31-17.61,3.05-8.23,4.81-17,6.31-25.64a221,221,0,0,0,3-26.66c.44-8.74.15-17.42-.2-26.16-.27-6.82-.37-14,1.94-20.5s7.75-11.59,14.88-12.25c6.93-.65,14,2.27,19.06,7,12,11.28,12.58,29.68,15.27,44.8,1.41,7.94,3.47,16,7.79,22.89a44.27,44.27,0,0,0,14.19,14c11.48,7.13,26.11,9.21,38.85,4.31a46.32,46.32,0,0,0,26.79-27.8,42.88,42.88,0,0,0,2.06-9.57c.16-1.51-2.22-1.5-2.38,0-1.42,13.86-10.34,26.41-22.56,33C426,254.88,410.73,254,398.44,247a41.87,41.87,0,0,1-14.94-14.24c-4.43-7.19-6.33-15.57-7.71-23.8C373.3,194.1,372.17,177,361,165.62c-8.66-8.85-24.6-12.4-33.91-2.54-9.58,10.15-6.71,26.5-6.4,39.11A217,217,0,0,1,315,257.12c-1.84,7.82-4,15.89-8.58,22.6-4.22,6.13-11.12,10.88-18.81,10.81s-13-5.7-15.76-12.39c-2.87-7.07-3.06-14.7-4.05-22.16-.92-6.85-2.58-14.42-7.73-19.44-4-3.89-9.94-6.4-15.57-5.5a11.82,11.82,0,0,0-6.95,3.76c-1,1.13.65,2.81,1.68,1.68Z"/><path class="cls-3" d="M582.71,489.94c-1.33-2.25-7.12.16-8.19-1.88s4.32-5.14,7.39-12.22c.56-1.28,4.05-9.32,1.46-11.81-4.9-4.71-27.31,14.72-35.16,8.36-1.72-1.39-2.92-4.18-8.13-8.7-2.08-1.8-3.33-2.61-4.54-2.31-1.72.43-1.86,2.73-3.71,7.25-2.76,6.77-4.4,6.36-6,11.77-1.2,4-.93,6.35-2.34,6.8-2,.65-3.83-3.61-6.35-3.23S513,489.32,512.5,493c-.93,7,1.64,11.56,3.06,16.39,1.54,5.25,2.46,13.23-1.11,24.54l-35.3,99.21C487,612.81,509.51,557,519,536.27c2.74-6,5.76-12.06,12-14.46,6-2.3,14.18-.93,24.64-3.44,1.22-.29,4.61-1.15,5-3.14.35-1.65-1.65-2.56-1.34-4.1.41-2.07,4.33-2.1,9.15-4.48a28.46,28.46,0,0,0,7.34-5.4c.55-.52,8.7-8.31,6.92-11.31Z"/><path class="cls-3" d="M443.84,542.17c-1.49,0-2,3.53-3.29,3.46s-1.28-3.59-3.88-7.14c-.47-.64-3.42-4.67-5.39-4.12-3.73,1-.64,17.62-6,19.63-1.18.44-2.9.22-6.63,1.47-1.48.49-2.24.87-2.45,1.55-.28,1,.81,1.7,2.5,3.91,2.54,3.31,1.86,4,4.06,6.34,1.63,1.74,2.85,2.28,2.67,3.11-.26,1.16-2.88.83-3.42,2.17s1.43,3.57,3.12,4.88c3.16,2.47,6.16,2.54,8.95,3.23,3,.76,7.22,2.62,11.75,7.63l38.63,45.9c-7.77-9.69-28.71-36.83-36.18-47.46-2.16-3.07-4.27-6.3-3.66-10s3.63-7.21,5.41-13.05c.21-.69.77-2.6-.09-3.38s-1.73.07-2.4-.53c-.9-.8.22-2.72.44-5.77a16.28,16.28,0,0,0-.54-5.15c-.1-.42-1.58-6.66-3.57-6.65Z"/><path class="cls-3" d="M473.63,548.84l-.9-8,.41-.61a14.8,14.8,0,0,0,2.88-8.15c0-.42,0-.83,0-1.25a12.66,12.66,0,0,1,.91-6.17c.61-1.35,2.32-4.48,4.9-4.09a3,3,0,0,1,1.61.78l.18-.28a9,9,0,0,1,2.05-2.25,10,10,0,0,0,1.71-1.72c.33-.42.59-.78.81-1.09a3.82,3.82,0,0,1,3.07-2c1.63.08,2.49,1.43,3.06,2.33a20,20,0,0,1,1.78,3.5,5.21,5.21,0,0,0,.3.69c.53.77,4.81,0,6.43-.21,3.62-.61,6.76-1.13,8.06,1.15.92,1.63.23,3.79-2.11,6.59a13.16,13.16,0,0,1-2.2,2.05,2.69,2.69,0,0,1,1.29,1.68c.49,1.94-1.18,3.89-5,5.79a13.42,13.42,0,0,1-4,1.42,16.38,16.38,0,0,1-2.23.2,2.64,2.64,0,0,1-.33,1.18c-.67,1.22-2.05,1.8-4.14,1.66a32,32,0,0,1-5.85-.94,14.56,14.56,0,0,0-3.69-.55c-1.83.15-3.24,1.61-4.89,3.5l-4.12,4.81Z"/><path class="cls-3" d="M477.8,501.14l-7.54,2.9-.69-.24a14.91,14.91,0,0,0-8.64-.71c-.4.1-.8.22-1.2.35a12.52,12.52,0,0,1-6.22.68c-1.46-.24-4.93-1.1-5.2-3.68a2.9,2.9,0,0,1,.35-1.75l-.32-.11a8.88,8.88,0,0,1-2.7-1.4,10.62,10.62,0,0,0-2.11-1.22c-.48-.21-.9-.37-1.26-.5a3.78,3.78,0,0,1-2.72-2.45c-.34-1.6.75-2.77,1.47-3.55a19.73,19.73,0,0,1,3-2.6,7,7,0,0,0,.59-.46c.62-.71-1.17-4.66-1.83-6.15-1.51-3.35-2.81-6.25-.93-8.07,1.35-1.31,3.62-1.2,6.93.36a13.11,13.11,0,0,1,2.54,1.6,2.68,2.68,0,0,1,1.31-1.67c1.75-1,4.07.15,6.87,3.33a13,13,0,0,1,2.38,3.48,15.23,15.23,0,0,1,.76,2.1,2.61,2.61,0,0,1,1.24,0c1.35.33,2.26,1.52,2.65,3.56a31.88,31.88,0,0,1,.58,5.89,14.09,14.09,0,0,0,.4,3.71c.61,1.72,2.38,2.71,4.63,3.82l5.71,2.76Z"/><path class="cls-3" d="M473.63,477.54l-.9-8,.41-.6a14.83,14.83,0,0,0,2.88-8.16c0-.41,0-.83,0-1.25a12.66,12.66,0,0,1,.91-6.17c.61-1.35,2.32-4.47,4.9-4.09a3,3,0,0,1,1.61.79l.18-.29a8.89,8.89,0,0,1,2.05-2.24,10.6,10.6,0,0,0,1.71-1.73c.33-.41.59-.78.81-1.08a3.78,3.78,0,0,1,3.07-2c1.63.08,2.49,1.43,3.06,2.32a20,20,0,0,1,1.78,3.51,4.94,4.94,0,0,0,.3.68c.53.78,4.81.05,6.43-.21,3.62-.6,6.76-1.12,8.06,1.16.92,1.63.23,3.79-2.11,6.59a13.16,13.16,0,0,1-2.2,2.05,2.69,2.69,0,0,1,1.29,1.68c.49,1.94-1.18,3.89-5,5.79a13.45,13.45,0,0,1-4,1.41,14.92,14.92,0,0,1-2.23.2,2.71,2.71,0,0,1-.33,1.19c-.67,1.22-2.05,1.8-4.14,1.66a32.85,32.85,0,0,1-5.85-.94,14.12,14.12,0,0,0-3.69-.55c-1.83.15-3.24,1.6-4.89,3.5l-4.12,4.8Z"/><path class="cls-3" d="M481.84,633,480.16,632l-.41-1.93.41,1.93-2,.23c0-.18-.14-.6-.3-1.26a278.06,278.06,0,0,1-5.79-31.64,321.35,321.35,0,0,1-2.62-36.63c-.19-12.33.4-21.68.87-29.18.35-5.67.78-11.06,1.21-16.31,1.12-14,2.18-27.29,1.39-42a38.8,38.8,0,0,0-4.53-17.36,37,37,0,0,0-9.49-11.1l2.48-3.1A40.9,40.9,0,0,1,471.91,456a42.47,42.47,0,0,1,5,19c.8,14.93-.27,28.31-1.41,42.48-.41,5.24-.85,10.61-1.2,16.24-.46,7.44-1,16.7-.86,28.88a317.87,317.87,0,0,0,2.59,36.18A272.81,272.81,0,0,0,481.76,630c.46,1.88.56,2.28.08,3Z"/><path class="cls-3" d="M451.66,453.07l-.49,0c-3.39-.18-6.52-2.2-9.31-6-1.31-1.78-2-3.82-3.32-7.89a48.63,48.63,0,0,1-1.83-8.18c-.4-2.86-.35-4.05.22-5.11a6.12,6.12,0,0,1,2.8-2.55,2.1,2.1,0,0,1,.15-1.17c.68-1.65,2.48-1.43,3.45-1.33a8.69,8.69,0,0,0,1.77.11,5,5,0,0,0,2.45-.82,11,11,0,0,1,3.32-1.31,12,12,0,0,1,6.25.5c4.29,1.43,6.41,4.76,8.86,8.61a30.31,30.31,0,0,1,3.28,7.45c.79,2.79.68,4,.44,4.95-.49,1.89-1.64,3-4.57,5.36a54.4,54.4,0,0,1-5.91,4.52c-3.07,1.77-5,2.88-7.56,2.88Z"/><path class="cls-4" d="M367.65,139.23H313.43a2.47,2.47,0,1,1,0-4.94h54.22a2.47,2.47,0,1,1,0,4.94Z"/><path class="cls-4" d="M451.63,283.06H397.4a2.47,2.47,0,1,1,0-4.94h54.23a2.47,2.47,0,1,1,0,4.94Z"/><path class="cls-4" d="M248.81,85.49H194.59a2.47,2.47,0,1,1,0-4.94h54.22a2.47,2.47,0,1,1,0,4.94Z"/><path class="cls-5" d="M-161.27,631.19a1.88,1.88,0,0,0,1.88,1.89H668.18a1.89,1.89,0,1,0,0-3.77H-159.39A1.88,1.88,0,0,0-161.27,631.19Z"/><path class="cls-4" d="M468.17,352.36H222.41a1.59,1.59,0,0,1-1.59-1.58V116.86a1.59,1.59,0,0,1,3.17,0V212.3c0,75.61,61.45,136.9,137.24,136.9H468.17a1.58,1.58,0,1,1,0,3.16Z"/><path class="cls-4" d="M274.16,258.35H219.94a2.48,2.48,0,1,1,0-5h54.22a2.48,2.48,0,1,1,0,5Z"/><path class="cls-6" d="M220.4,265.39c8.6-2.84,14.1-9.56,12.3-15s-10.25-7.58-18.85-4.75a22.8,22.8,0,0,0-9.16,5.52l-36.28,12.47,6.22,16.86,35.11-14.08a22.7,22.7,0,0,0,10.66-1Z"/><path class="cls-6" d="M33.88,362c.3,9,5.21,16.19,11,16s10.19-7.66,9.89-16.69A22.63,22.63,0,0,0,52,351l-1.73-38.24-18,1.19,3.61,37.57a22.69,22.69,0,0,0-2,10.49Z"/><path class="cls-6" d="M75.38,619.68h16l4.11-62.13L75.37,558Z"/><path class="cls-7" d="M130.34,619.32a13.7,13.7,0,0,1,.76,4.52,5.44,5.44,0,0,1-5.44,5.43H76a3.7,3.7,0,0,1-3.72-3.7v-2.06s-2.46-6.2,2.6-13.85c0,0,6.29,6,15.69-3.39l2.77-5,20.06,14.63,11.12,1.36c2.43.3,4.59,0,5.84,2.06Z"/><path class="cls-6" d="M113.4,619.68h16l4.11-62.13L113.4,558Z"/><path class="cls-7" d="M168.37,619.32a13.7,13.7,0,0,1,.76,4.52,5.44,5.44,0,0,1-5.45,5.43H114a3.7,3.7,0,0,1-3.71-3.7v-2.06s-2.46-6.2,2.6-13.85c0,0,6.29,6,15.69-3.39l2.77-5,20.06,14.63,11.12,1.36c2.43.3,4.59,0,5.84,2.06Z"/><path class="cls-6" d="M84.71,156.9a23.54,23.54,0,1,0-23.6-23.54A23.57,23.57,0,0,0,84.71,156.9Z"/><path class="cls-7" d="M52.06,329.16l11.09,158,6.34,105.9,30.1-1.58L96.43,476.15,102.76,405l9.51,186.5h24l9.31-260.79-51.49-7.11Z"/><path class="cls-7" d="M93.26,152.14c-6.71,6.44-22.23,2.17-30.11,0-4.34-1.2-7-2.43-7.92-4.75-.67-1.6-.29-3.13-1.59-6.32-.75-1.87-1.15-2-1.58-3.16-1.19-3.22.46-6.09,1.58-9.48,2.35-7.09-.45-7.89,1.59-12.65,3.06-7.15,11.4-10.06,14.26-11.06a27.48,27.48,0,0,1,26.94,4.74c3.84,3,5.73,6.24,9.5,12.65,3.29,5.57,3.53,7.71,3.17,9.48-.54,2.69-2.09,2.7-3.17,6.32-1.22,4.11.17,6.18-1.58,7.9-1.19,1.17-2.29.68-4.76,1.58C96.2,148.63,94.52,150.92,93.26,152.14Z"/><path class="cls-7" d="M112.27,175.84s-23.77-30-53.87-19l-9.75,19-3.26,3.08a56.47,56.47,0,0,0-17,50.25l14.13,85.76s-1.58,33.2,9.51,42.68c0,0,15.84-30,53.87-15.81s45.95,6.33,45.95,6.33L139.21,258Z"/><path class="cls-7" d="M104.35,180.59,96.43,198l30.1,101.16,82.4-30-11.1-19-39.61,11.06S128.12,172.68,104.35,180.59Z"/><path class="cls-7" d="M48.1,339.43H30.67L27.5,213l20.6,42.67Z"/><path class="cls-8" d="M239,243a7.12,7.12,0,1,0-7.13-7.11A7.12,7.12,0,0,0,239,243Z"/><path class="cls-8" d="M286.57,298.34a7.12,7.12,0,1,0-7.13-7.11A7.13,7.13,0,0,0,286.57,298.34Z"/><path class="cls-8" d="M340.44,165.57a7.11,7.11,0,1,0-7.13-7.11A7.12,7.12,0,0,0,340.44,165.57Z"/><path class="cls-8" d="M419.66,260.4a7.11,7.11,0,1,0-7.13-7.11A7.13,7.13,0,0,0,419.66,260.4Z"/><path class="cls-8" d="M465.61,222.47a7.11,7.11,0,1,0-7.13-7.11A7.12,7.12,0,0,0,465.61,222.47Z"/><path class="cls-8" d="M452,64.45l13,6.16c-5.35-7.44-10-19.07-12.42-28.32-4.18,8.62-10.92,19.16-17.58,25.46l13.78-3.53c-8.49,41.51-40.43,71.32-77,71.32l-.52,1.5c38.21,0,72-29.39,80.71-72.59Z"/><path class="cls-4" d="M468.27,365.3a6.11,6.11,0,0,1-2.58-.59,5.91,5.91,0,0,1-3.45-5.16l-.86-18.37a6,6,0,0,1,9.68-5.05l12.54,9.57a6,6,0,0,1,0,9.56l-11.69,8.81a6,6,0,0,1-3.61,1.23Z"/><path class="cls-4" d="M237,118.39a6,6,0,0,1-.58,2.57,5.93,5.93,0,0,1-5.18,3.45l-18.42.85a6,6,0,0,1-5.06-9.65l9.59-12.51a6,6,0,0,1,9.59,0l8.83,11.66A5.92,5.92,0,0,1,237,118.39Z"/><path class="cls-2" d="M339.85,102.12a35.27,35.27,0,0,0-27.42,5.07,37.3,37.3,0,0,0-15.86,24.24c-3.89,20.28,8,40.54,26.76,48.61,19.74,8.48,43.21,2.79,57.55-13A51.43,51.43,0,0,0,393.75,139c1.32-10.29-.18-22.16-6.43-30.74s-16.5-11.37-26.46-12.77c-9.67-1.35-22.49-1.94-27.72,8.26a12.24,12.24,0,0,0-1.35,6.23c.07,1.51,2.45,1.52,2.38,0-.25-4.78,2.94-8.76,7-10.91,4.74-2.48,10.45-2.27,15.62-1.72,9.32,1,19.91,2.79,26.64,9.93s8.71,18,8.29,27.41a49.28,49.28,0,0,1-9.81,27.46c-11.78,15.57-32.39,23-51.34,17.94-18.48-4.9-18.72-15.83-18.41-35.2.16-10.33-9.62-26.59-1.64-33.32a33.18,33.18,0,0,1,28.67-7.13c1.49.36,2.12-1.93.63-2.28Z"/><rect class="cls-1" width="620" height="634.19"/></svg>